{
    "asset" : {
        "generator" : "Khronos Blender glTF 2.0 I/O",
        "version" : "2.0"
    },
    "scene" : 0,
    "scenes" : [
        {
            "name" : "Scene",
            "nodes" : [
                0,
                1,
                2
            ]
        }
    ],
    "nodes" : [
        {
            "mesh" : 0,
            "name" : "Armacao",
            "rotation" : [
                0.7071068286895752,
                0,
                0,
                0.7071068286895752
            ],
            "scale" : [
                0.0014441139064729214,
                0.0014441139064729214,
                0.0014441139064729214
            ],
            "translation" : [
                -0.0020043598487973213,
                0.022724566981196404,
                0.05239821970462799
            ]
        },
        {
            "mesh" : 1,
            "name" : "Lentes",
            "rotation" : [
                0.7071068286895752,
                0,
                0,
                0.7071068286895752
            ],
            "scale" : [
                0.0014441139064729214,
                0.0014441139064729214,
                0.0014441139064729214
            ],
            "translation" : [
                -0.002085080137476325,
                0.01761561818420887,
                0.0513010174036026
            ]
        },
        {
            "mesh" : 2,
            "name" : "pernas",
            "rotation" : [
                0,
                0,
                -0.7071068286895752,
                0.7071068286895752
            ],
            "scale" : [
                0.041825562715530396,
                0.041825562715530396,
                0.04444346949458122
            ],
            "translation" : [
                -0.0034190102014690638,
                0.02619507536292076,
                -0.023438675329089165
            ]
        }
    ],
    "materials" : [
        {
            "name" : "Material",
            "pbrMetallicRoughness" : {
                "baseColorTexture" : {
                    "index" : 0,
                    "texCoord" : 0
                },
                "metallicFactor" : 0,
                "roughnessFactor" : 0.5
            }
        },
        {
            "name" : "Material.001",
            "pbrMetallicRoughness" : {
                "baseColorTexture" : {
                    "index" : 1,
                    "texCoord" : 0
                },
                "metallicFactor" : 0,
                "roughnessFactor" : 0.5
            }
        },
        {
            "name" : "Material.002",
            "pbrMetallicRoughness" : {
                "baseColorTexture" : {
                    "index" : 2,
                    "texCoord" : 0
                },
                "metallicFactor" : 0,
                "roughnessFactor" : 0.5
            }
        }
    ],
    "meshes" : [
        {
            "name" : "Plane",
            "primitives" : [
                {
                    "attributes" : {
                        "POSITION" : 0,
                        "NORMAL" : 1,
                        "TEXCOORD_0" : 2
                    },
                    "indices" : 3,
                    "material" : 0
                }
            ]
        },
        {
            "name" : "Plane.001",
            "primitives" : [
                {
                    "attributes" : {
                        "POSITION" : 4,
                        "NORMAL" : 5,
                        "TEXCOORD_0" : 6
                    },
                    "indices" : 7,
                    "material" : 1
                }
            ]
        },
        {
            "name" : "Plane.004",
            "primitives" : [
                {
                    "attributes" : {
                        "POSITION" : 8,
                        "NORMAL" : 9,
                        "TEXCOORD_0" : 10
                    },
                    "indices" : 11,
                    "material" : 2
                }
            ]
        }
    ],
    "textures" : [
        {
            "source" : 0
        },
        {
            "source" : 1
        },
        {
            "source" : 2
        }
    ],
    "images" : [
        {
            "bufferView" : 4,
            "mimeType" : "image/png",
            "name" : "TexturaArmacao.png"
        },
        {
            "bufferView" : 9,
            "mimeType" : "image/png",
            "name" : "TexturaLentes.png"
        },
        {
            "bufferView" : 14,
            "mimeType" : "image/png",
            "name" : "texturapernas.png"
        }
    ],
    "accessors" : [
        {
            "bufferView" : 0,
            "componentType" : 5126,
            "count" : 2144,
            "max" : [
                53.15873718261719,
                5.90940523147583,
                24.696788787841797
            ],
            "min" : [
                -53.15873718261719,
                -9.874715805053711,
                -12.687169075012207
            ],
            "type" : "VEC3"
        },
        {
            "bufferView" : 1,
            "componentType" : 5126,
            "count" : 2144,
            "type" : "VEC3"
        },
        {
            "bufferView" : 2,
            "componentType" : 5126,
            "count" : 2144,
            "type" : "VEC2"
        },
        {
            "bufferView" : 3,
            "componentType" : 5123,
            "count" : 3216,
            "type" : "SCALAR"
        },
        {
            "bufferView" : 5,
            "componentType" : 5126,
            "count" : 94,
            "max" : [
                45.29535675048828,
                5.418618202209473,
                18.99267578125
            ],
            "min" : [
                -45.15093994140625,
                -5.08367919921875,
                -12.804216384887695
            ],
            "type" : "VEC3"
        },
        {
            "bufferView" : 6,
            "componentType" : 5126,
            "count" : 94,
            "type" : "VEC3"
        },
        {
            "bufferView" : 7,
            "componentType" : 5126,
            "count" : 94,
            "type" : "VEC2"
        },
        {
            "bufferView" : 8,
            "componentType" : 5123,
            "count" : 270,
            "type" : "SCALAR"
        },
        {
            "bufferView" : 10,
            "componentType" : 5126,
            "count" : 512,
            "max" : [
                0.17397013306617737,
                1.9277045726776123,
                1.4088969230651855
            ],
            "min" : [
                -0.2516144812107086,
                -1.8600070476531982,
                -0.9801875948905945
            ],
            "type" : "VEC3"
        },
        {
            "bufferView" : 11,
            "componentType" : 5126,
            "count" : 512,
            "type" : "VEC3"
        },
        {
            "bufferView" : 12,
            "componentType" : 5126,
            "count" : 512,
            "type" : "VEC2"
        },
        {
            "bufferView" : 13,
            "componentType" : 5123,
            "count" : 768,
            "type" : "SCALAR"
        }
    ],
    "bufferViews" : [
        {
            "buffer" : 0,
            "byteLength" : 25728,
            "byteOffset" : 0
        },
        {
            "buffer" : 0,
            "byteLength" : 25728,
            "byteOffset" : 25728
        },
        {
            "buffer" : 0,
            "byteLength" : 17152,
            "byteOffset" : 51456
        },
        {
            "buffer" : 0,
            "byteLength" : 6432,
            "byteOffset" : 68608
        },
        {
            "buffer" : 0,
            "byteLength" : 1208054,
            "byteOffset" : 75040
        },
        {
            "buffer" : 0,
            "byteLength" : 1128,
            "byteOffset" : 1283096
        },
        {
            "buffer" : 0,
            "byteLength" : 1128,
            "byteOffset" : 1284224
        },
        {
            "buffer" : 0,
            "byteLength" : 752,
            "byteOffset" : 1285352
        },
        {
            "buffer" : 0,
            "byteLength" : 540,
            "byteOffset" : 1286104
        },
        {
            "buffer" : 0,
            "byteLength" : 258419,
            "byteOffset" : 1286644
        },
        {
            "buffer" : 0,
            "byteLength" : 6144,
            "byteOffset" : 1545064
        },
        {
            "buffer" : 0,
            "byteLength" : 6144,
            "byteOffset" : 1551208
        },
        {
            "buffer" : 0,
            "byteLength" : 4096,
            "byteOffset" : 1557352
        },
        {
            "buffer" : 0,
            "byteLength" : 1536,
            "byteOffset" : 1561448
        },
        {
            "buffer" : 0,
            "byteLength" : 288680,
            "byteOffset" : 1562984
        }
    ],
    "buffers" : [
        {
            "byteLength" : 1851664,
            "uri" : "data:application/octet-stream;base64,"
        }
    ]
}
